<svg id="Layer_1" data-name="Layer 1" xmlns="http://www.w3.org/2000/svg" xmlns:xlink="http://www.w3.org/1999/xlink" viewBox="0 0 821.84 438.83"><defs><style>.cls-1{mask:url(#mask);}.cls-10,.cls-11,.cls-12,.cls-13,.cls-14,.cls-15,.cls-16,.cls-17,.cls-18,.cls-19,.cls-2,.cls-20,.cls-21,.cls-22,.cls-23,.cls-24,.cls-3,.cls-4,.cls-5,.cls-51,.cls-53,.cls-55,.cls-57,.cls-59,.cls-6,.cls-61,.cls-63,.cls-64,.cls-65,.cls-7,.cls-8,.cls-9{fill:none;}.cls-10,.cls-11,.cls-12,.cls-13,.cls-14,.cls-15,.cls-16,.cls-17,.cls-18,.cls-19,.cls-20,.cls-21,.cls-22,.cls-23,.cls-24,.cls-25,.cls-26,.cls-27,.cls-28,.cls-29,.cls-3,.cls-30,.cls-31,.cls-32,.cls-33,.cls-34,.cls-35,.cls-36,.cls-37,.cls-38,.cls-39,.cls-4,.cls-40,.cls-41,.cls-42,.cls-43,.cls-44,.cls-45,.cls-46,.cls-47,.cls-48,.cls-49,.cls-5,.cls-50,.cls-51,.cls-52,.cls-53,.cls-54,.cls-55,.cls-56,.cls-57,.cls-58,.cls-59,.cls-6,.cls-60,.cls-61,.cls-62,.cls-63,.cls-64,.cls-65,.cls-7,.cls-8,.cls-9{stroke-miterlimit:10;}.cls-3{stroke:url(#linear-gradient);}.cls-17,.cls-18,.cls-19,.cls-20,.cls-21,.cls-22,.cls-23,.cls-24,.cls-25,.cls-26,.cls-27,.cls-28,.cls-29,.cls-30,.cls-31,.cls-32,.cls-33,.cls-34,.cls-35,.cls-36,.cls-37,.cls-38,.cls-39,.cls-4,.cls-40,.cls-41,.cls-42,.cls-43,.cls-44,.cls-45,.cls-46,.cls-47,.cls-48,.cls-49,.cls-5,.cls-50,.cls-6,.cls-7,.cls-8{stroke-width:1.83px;}.cls-4{stroke:url(#linear-gradient-2);}.cls-5{stroke:url(#linear-gradient-3);}.cls-6{stroke:url(#linear-gradient-4);}.cls-7{stroke:url(#linear-gradient-5);}.cls-8{stroke:url(#linear-gradient-6);}.cls-10,.cls-11,.cls-12,.cls-13,.cls-14,.cls-15,.cls-16,.cls-9{stroke-width:13.28px;}.cls-9{stroke:url(#linear-gradient-7);}.cls-10{stroke:url(#linear-gradient-8);}.cls-11{stroke:url(#linear-gradient-9);}.cls-12{stroke:url(#linear-gradient-10);}.cls-13{stroke:url(#linear-gradient-11);}.cls-14{stroke:url(#linear-gradient-12);}.cls-15{stroke:url(#linear-gradient-13);}.cls-16{stroke:url(#linear-gradient-14);}.cls-17{stroke:url(#linear-gradient-28);}.cls-18{stroke:url(#linear-gradient-29);}.cls-19{stroke:url(#linear-gradient-30);}.cls-20{stroke:url(#linear-gradient-31);}.cls-21{stroke:url(#linear-gradient-32);}.cls-22{stroke:url(#linear-gradient-33);}.cls-23{stroke:url(#linear-gradient-34);}.cls-24{stroke:url(#linear-gradient-35);}.cls-25,.cls-26,.cls-27,.cls-28,.cls-29,.cls-30,.cls-31,.cls-32,.cls-33,.cls-34,.cls-35,.cls-36,.cls-37,.cls-38,.cls-39,.cls-40,.cls-41,.cls-42,.cls-43,.cls-44,.cls-45,.cls-46,.cls-47,.cls-48,.cls-49,.cls-50{fill:#fff;}.cls-25{stroke:url(#linear-gradient-36);}.cls-26{stroke:url(#linear-gradient-37);}.cls-27{stroke:url(#linear-gradient-38);}.cls-28{stroke:url(#linear-gradient-39);}.cls-29{stroke:url(#linear-gradient-40);}.cls-30{stroke:url(#linear-gradient-41);}.cls-31{stroke:url(#linear-gradient-42);}.cls-32{stroke:url(#linear-gradient-43);}.cls-33{stroke:url(#linear-gradient-44);}.cls-34{stroke:url(#linear-gradient-45);}.cls-35{stroke:url(#linear-gradient-46);}.cls-36{stroke:url(#linear-gradient-47);}.cls-37{stroke:url(#linear-gradient-48);}.cls-38{stroke:url(#linear-gradient-49);}.cls-39{stroke:url(#linear-gradient-50);}.cls-40{stroke:url(#linear-gradient-51);}.cls-41{stroke:url(#linear-gradient-52);}.cls-42{stroke:url(#linear-gradient-53);}.cls-43{stroke:url(#linear-gradient-54);}.cls-44{stroke:url(#linear-gradient-55);}.cls-45{stroke:url(#linear-gradient-56);}.cls-46{stroke:url(#linear-gradient-57);}.cls-47{stroke:url(#linear-gradient-58);}.cls-48{stroke:url(#linear-gradient-59);}.cls-49{stroke:url(#linear-gradient-60);}.cls-50{stroke:url(#linear-gradient-61);}.cls-51{stroke:url(#linear-gradient-62);}.cls-52,.cls-54,.cls-56,.cls-58,.cls-60,.cls-62{fill:#0ab59d;}.cls-52{stroke:url(#linear-gradient-63);}.cls-53,.cls-54{stroke:url(#linear-gradient-64);}.cls-55{stroke:url(#linear-gradient-66);}.cls-56{stroke:url(#linear-gradient-67);}.cls-57,.cls-58{stroke:url(#linear-gradient-68);}.cls-59{stroke:url(#linear-gradient-70);}.cls-60{stroke:url(#linear-gradient-71);}.cls-61,.cls-62{stroke:url(#linear-gradient-72);}.cls-63,.cls-64{stroke-width:5.09px;}.cls-63{stroke:url(#linear-gradient-74);}.cls-64{stroke:url(#linear-gradient-75);}.cls-65{stroke-width:0.82px;stroke:url(#linear-gradient-76);}.cls-66{filter:url(#luminosity-invert-noclip);}</style><filter id="luminosity-invert-noclip" x="9152" y="-8732" width="-32766" height="32766" filterUnits="userSpaceOnUse" color-interpolation-filters="sRGB"><feColorMatrix values="-1 0 0 0 1 0 -1 0 0 1 0 0 -1 0 1 0 0 0 1 0" result="invert"/><feFlood flood-color="#fff" result="bg"/><feBlend in="invert" in2="bg"/></filter><mask id="mask" x="8024.93" y="-9094.37" width="-32766" height="32766" maskUnits="userSpaceOnUse"><g class="cls-66"/></mask><linearGradient id="linear-gradient" y1="219.42" x2="438.83" y2="219.42" gradientUnits="userSpaceOnUse"><stop offset="0" stop-color="#29abe2"/><stop offset="1" stop-color="#00f1d3"/></linearGradient><linearGradient id="linear-gradient-2" x1="108.7" y1="220.25" x2="333.67" y2="220.25" xlink:href="#linear-gradient"/><linearGradient id="linear-gradient-3" x1="61.17" y1="220.25" x2="381.2" y2="220.25" xlink:href="#linear-gradient"/><linearGradient id="linear-gradient-4" x1="34.88" y1="220.25" x2="407.49" y2="220.25" xlink:href="#linear-gradient"/><linearGradient id="linear-gradient-5" x1="11.64" y1="220.25" x2="430.73" y2="220.25" xlink:href="#linear-gradient"/><linearGradient id="linear-gradient-6" x1="99.92" y1="220.25" x2="342.45" y2="220.25" xlink:href="#linear-gradient"/><linearGradient id="linear-gradient-7" x1="1214.28" y1="645.12" x2="1340.43" y2="645.12" xlink:href="#linear-gradient"/><linearGradient id="linear-gradient-8" x1="1356.08" y1="520.12" x2="1482.24" y2="520.12" xlink:href="#linear-gradient"/><linearGradient id="linear-gradient-9" x1="1189.28" y1="498.23" x2="1358.59" y2="498.23" xlink:href="#linear-gradient"/><linearGradient id="linear-gradient-10" x1="1337.93" y1="667.01" x2="1507.23" y2="667.01" xlink:href="#linear-gradient"/><linearGradient id="linear-gradient-11" x1="1226.15" y1="433.8" x2="1486.35" y2="433.8" xlink:href="#linear-gradient"/><linearGradient id="linear-gradient-12" x1="1210.16" y1="731.45" x2="1470.37" y2="731.45" xlink:href="#linear-gradient"/><linearGradient id="linear-gradient-13" x1="1451" y1="548.88" x2="1556.72" y2="548.88" xlink:href="#linear-gradient"/><linearGradient id="linear-gradient-14" x1="1139.79" y1="616.36" x2="1245.52" y2="616.36" xlink:href="#linear-gradient"/><linearGradient id="linear-gradient-28" x1="344.9" y1="148.33" x2="619.38" y2="148.33" xlink:href="#linear-gradient"/><linearGradient id="linear-gradient-29" x1="531.26" y1="139.53" x2="795.14" y2="139.53" xlink:href="#linear-gradient"/><linearGradient id="linear-gradient-30" x1="446.32" y1="71.97" x2="685.68" y2="71.97" xlink:href="#linear-gradient"/><linearGradient id="linear-gradient-31" x1="429.64" y1="279.7" x2="656.21" y2="279.7" xlink:href="#linear-gradient"/><linearGradient id="linear-gradient-32" x1="350.99" y1="227.62" x2="721.47" y2="227.62" xlink:href="#linear-gradient"/><linearGradient id="linear-gradient-33" x1="633.74" y1="225.69" x2="815.49" y2="225.69" xlink:href="#linear-gradient"/><linearGradient id="linear-gradient-34" x1="621.24" y1="298.08" x2="788.83" y2="298.08" xlink:href="#linear-gradient"/><linearGradient id="linear-gradient-35" x1="336.68" y1="325.1" x2="579.38" y2="325.1" xlink:href="#linear-gradient"/><linearGradient id="linear-gradient-36" x1="438.48" y1="93.95" x2="454" y2="93.95" xlink:href="#linear-gradient"/><linearGradient id="linear-gradient-37" x1="559.52" y1="113.95" x2="575.03" y2="113.95" xlink:href="#linear-gradient"/><linearGradient id="linear-gradient-38" x1="465.32" y1="49.75" x2="480.84" y2="49.75" xlink:href="#linear-gradient"/><linearGradient id="linear-gradient-39" x1="397.26" y1="93.95" x2="412.78" y2="93.95" xlink:href="#linear-gradient"/><linearGradient id="linear-gradient-40" x1="339.02" y1="201.31" x2="354.54" y2="201.31" xlink:href="#linear-gradient"/><linearGradient id="linear-gradient-41" x1="430.94" y1="168.33" x2="446.46" y2="168.33" xlink:href="#linear-gradient"/><linearGradient id="linear-gradient-42" x1="524.26" y1="166.93" x2="539.78" y2="166.93" xlink:href="#linear-gradient"/><linearGradient id="linear-gradient-43" x1="677.22" y1="146.58" x2="692.74" y2="146.58" xlink:href="#linear-gradient"/><linearGradient id="linear-gradient-44" x1="659.68" y1="113.6" x2="675.2" y2="113.6" xlink:href="#linear-gradient"/><linearGradient id="linear-gradient-45" x1="534.79" y1="198.15" x2="550.3" y2="198.15" xlink:href="#linear-gradient"/><linearGradient id="linear-gradient-46" x1="628.81" y1="197.45" x2="644.32" y2="197.45" xlink:href="#linear-gradient"/><linearGradient id="linear-gradient-47" x1="672.31" y1="255.68" x2="687.83" y2="255.68" xlink:href="#linear-gradient"/><linearGradient id="linear-gradient-48" x1="614.78" y1="266.21" x2="630.29" y2="266.21" xlink:href="#linear-gradient"/><linearGradient id="linear-gradient-49" x1="557.24" y1="265.51" x2="572.75" y2="265.51" xlink:href="#linear-gradient"/><linearGradient id="linear-gradient-50" x1="534.09" y1="300.59" x2="549.6" y2="300.59" xlink:href="#linear-gradient"/><linearGradient id="linear-gradient-51" x1="423.92" y1="258.49" x2="439.44" y2="258.49" xlink:href="#linear-gradient"/><linearGradient id="linear-gradient-52" x1="346.04" y1="257.79" x2="361.56" y2="257.79" xlink:href="#linear-gradient"/><linearGradient id="linear-gradient-53" x1="331.31" y1="293.57" x2="346.82" y2="293.57" xlink:href="#linear-gradient"/><linearGradient id="linear-gradient-54" x1="398.67" y1="356.02" x2="414.18" y2="356.02" xlink:href="#linear-gradient"/><linearGradient id="linear-gradient-55" x1="571.27" y1="356.72" x2="586.79" y2="356.72" xlink:href="#linear-gradient"/><linearGradient id="linear-gradient-56" x1="806.33" y1="253.58" x2="821.84" y2="253.58" xlink:href="#linear-gradient"/><linearGradient id="linear-gradient-57" x1="779.67" y1="330.76" x2="795.18" y2="330.76" xlink:href="#linear-gradient"/><linearGradient id="linear-gradient-58" x1="656.88" y1="328.66" x2="672.39" y2="328.66" xlink:href="#linear-gradient"/><linearGradient id="linear-gradient-59" x1="713.01" y1="199.55" x2="728.52" y2="199.55" xlink:href="#linear-gradient"/><linearGradient id="linear-gradient-60" x1="785.98" y1="147.63" x2="801.5" y2="147.63" xlink:href="#linear-gradient"/><linearGradient id="linear-gradient-61" x1="677.22" y1="51.5" x2="692.74" y2="51.5" xlink:href="#linear-gradient"/><linearGradient id="linear-gradient-62" x1="1778.89" y1="753.55" x2="1820.12" y2="753.55" xlink:href="#linear-gradient"/><linearGradient id="linear-gradient-63" x1="1778.89" y1="753.55" x2="1820.12" y2="753.55" xlink:href="#linear-gradient"/><linearGradient id="linear-gradient-64" x1="1769.75" y1="753.96" x2="1810.98" y2="753.96" xlink:href="#linear-gradient"/><linearGradient id="linear-gradient-66" x1="1533.88" y1="398.51" x2="1575.12" y2="398.51" xlink:href="#linear-gradient"/><linearGradient id="linear-gradient-67" x1="1533.88" y1="398.51" x2="1575.12" y2="398.51" xlink:href="#linear-gradient"/><linearGradient id="linear-gradient-68" x1="1524.74" y1="398.92" x2="1565.98" y2="398.92" xlink:href="#linear-gradient"/><linearGradient id="linear-gradient-70" x1="1878.88" y1="464.51" x2="1920.12" y2="464.51" gradientUnits="userSpaceOnUse"><stop offset="0.4" stop-color="#00f1d3"/><stop offset="1" stop-color="#29abe2"/></linearGradient><linearGradient id="linear-gradient-71" x1="1878.88" y1="464.51" x2="1920.12" y2="464.51" xlink:href="#linear-gradient-70"/><linearGradient id="linear-gradient-72" x1="1869.74" y1="464.92" x2="1910.98" y2="464.92" xlink:href="#linear-gradient-70"/><linearGradient id="linear-gradient-74" x1="177.03" y1="218.6" x2="268.43" y2="218.6" xlink:href="#linear-gradient"/><linearGradient id="linear-gradient-75" x1="190.25" y1="205.78" x2="281.64" y2="205.78" gradientUnits="userSpaceOnUse"><stop offset="0" stop-color="#00f1c9"/><stop offset="1" stop-color="#29abe2"/></linearGradient><linearGradient id="linear-gradient-76" x1="0.53" y1="887.5" x2="0.53" y2="887.5" gradientTransform="matrix(1, 0, 0, 1, -0.25, -48.01)" xlink:href="#linear-gradient"/></defs><g class="cls-1"><path class="cls-2" d="M-115.74,826.33" transform="translate(-1127.07 -362.37)"/></g><circle class="cls-3" cx="219.42" cy="219.42" r="218.92"/><circle class="cls-4" cx="221.18" cy="220.25" r="111.56"/><circle class="cls-5" cx="221.18" cy="220.25" r="159.09"/><circle class="cls-6" cx="221.18" cy="220.25" r="185.38"/><circle class="cls-7" cx="221.18" cy="220.25" r="208.62"/><circle class="cls-8" cx="221.18" cy="220.25" r="120.34"/><path class="cls-9" d="M1340,709.69a127.34,127.34,0,0,1-118.81-135.32" transform="translate(-1127.07 -362.37)"/><path class="cls-10" d="M1356.51,455.56a127.33,127.33,0,0,1,118.81,135.32" transform="translate(-1127.07 -362.37)"/><path class="cls-11" d="M1195.91,572.72a152.66,152.66,0,0,1,162.25-142.44" transform="translate(-1127.07 -362.37)"/><path class="cls-12" d="M1500.6,592.52A152.66,152.66,0,0,1,1338.36,735" transform="translate(-1127.07 -362.37)"/><path class="cls-13" d="M1230.54,449.51a177.69,177.69,0,0,1,250.83,15.4" transform="translate(-1127.07 -362.37)"/><path class="cls-14" d="M1466,715.74a177.7,177.7,0,0,1-250.83-15.41" transform="translate(-1127.07 -362.37)"/><path class="cls-15" d="M1454.49,411.06c94.76,58.67,124,183,65.33,277.8" transform="translate(-1127.07 -362.37)"/><path class="cls-16" d="M1242,754.19c-94.75-58.67-124-183.05-65.33-277.8" transform="translate(-1127.07 -362.37)"/><circle class="cls-4" cx="221.18" cy="220.25" r="111.56"/><circle class="cls-5" cx="221.18" cy="220.25" r="159.09"/><circle class="cls-6" cx="221.18" cy="220.25" r="185.38"/><circle class="cls-7" cx="221.18" cy="220.25" r="208.62"/><circle class="cls-8" cx="221.18" cy="220.25" r="120.34"/><path class="cls-9" d="M1340,709.69a127.34,127.34,0,0,1-118.81-135.32" transform="translate(-1127.07 -362.37)"/><path class="cls-10" d="M1356.51,455.56a127.33,127.33,0,0,1,118.81,135.32" transform="translate(-1127.07 -362.37)"/><path class="cls-11" d="M1195.91,572.72a152.66,152.66,0,0,1,162.25-142.44" transform="translate(-1127.07 -362.37)"/><path class="cls-12" d="M1500.6,592.52A152.66,152.66,0,0,1,1338.36,735" transform="translate(-1127.07 -362.37)"/><path class="cls-13" d="M1230.54,449.51a177.69,177.69,0,0,1,250.83,15.4" transform="translate(-1127.07 -362.37)"/><path class="cls-14" d="M1466,715.74a177.7,177.7,0,0,1-250.83-15.41" transform="translate(-1127.07 -362.37)"/><path class="cls-15" d="M1454.49,411.06c94.76,58.67,124,183,65.33,277.8" transform="translate(-1127.07 -362.37)"/><path class="cls-16" d="M1242,754.19c-94.75-58.67-124-183.05-65.33-277.8" transform="translate(-1127.07 -362.37)"/><polyline class="cls-17" points="619.38 167.28 438.35 167.28 410.28 202.36 346.43 202.36 404.32 94.3 496.94 94.3"/><polyline class="cls-18" points="532.02 166.57 567.8 112.9 667.79 112.9 684.63 146.58 795.14 146.58"/><polyline class="cls-19" points="447.12 94.3 472.38 50.1 685.68 50.1"/><polyline class="cls-20" points="656.21 265.51 564.65 265.51 540.44 302.35 453.61 302.35 430.45 256.56"/><polyline class="cls-21" points="721.47 198.15 541.84 198.15 499.74 257.09 350.99 257.09"/><polyline class="cls-22" points="634.46 196.75 679.37 254.28 815.49 254.28"/><polyline class="cls-23" points="622.01 265.51 664.11 330.24 788.83 330.24"/><polyline class="cls-24" points="337.31 292.87 405.72 357.07 579.38 357.07"/><circle class="cls-25" cx="446.24" cy="93.95" r="6.84"/><circle class="cls-26" cx="567.28" cy="113.95" r="6.84"/><circle class="cls-27" cx="473.08" cy="49.75" r="6.84"/><circle class="cls-28" cx="405.02" cy="93.95" r="6.84"/><circle class="cls-29" cx="346.78" cy="201.31" r="6.84"/><circle class="cls-30" cx="438.7" cy="168.33" r="6.84"/><circle class="cls-31" cx="532.02" cy="166.93" r="6.84"/><circle class="cls-32" cx="684.98" cy="146.58" r="6.84"/><circle class="cls-33" cx="667.44" cy="113.6" r="6.84"/><circle class="cls-34" cx="542.54" cy="198.15" r="6.84"/><circle class="cls-35" cx="636.57" cy="197.45" r="6.84"/><circle class="cls-36" cx="680.07" cy="255.68" r="6.84"/><circle class="cls-37" cx="622.53" cy="266.21" r="6.84"/><circle class="cls-38" cx="565" cy="265.51" r="6.84"/><circle class="cls-39" cx="541.84" cy="300.59" r="6.84"/><circle class="cls-40" cx="431.68" cy="258.49" r="6.84"/><circle class="cls-41" cx="353.8" cy="257.79" r="6.84"/><circle class="cls-42" cx="339.06" cy="293.57" r="6.84"/><circle class="cls-43" cx="406.42" cy="356.02" r="6.84"/><circle class="cls-44" cx="579.03" cy="356.72" r="6.84"/><circle class="cls-45" cx="814.09" cy="253.58" r="6.84"/><circle class="cls-46" cx="787.42" cy="330.76" r="6.84"/><circle class="cls-47" cx="664.63" cy="328.66" r="6.84"/><circle class="cls-48" cx="720.77" cy="199.55" r="6.84"/><circle class="cls-49" cx="793.74" cy="147.63" r="6.84"/><circle class="cls-50" cx="684.98" cy="51.5" r="6.84"/><g id="Polygon_15" data-name="Polygon 15"><path class="cls-51" d="M1779.39,731.41l39.7,19.39-39.67,24.79Z" transform="translate(-1127.07 -362.37)"/><path class="cls-52" d="M1779.63,731.79l0,43.37,38.94-24.34-39-19m-.24-.38,39.7,19.39-39.67,24.79Z" transform="translate(-1127.07 -362.37)"/></g><g id="Polygon_16" data-name="Polygon 16"><path class="cls-53" d="M1770.25,731.81l39.7,19.4L1770.28,776Z" transform="translate(-1127.07 -362.37)"/><path class="cls-54" d="M1770.49,732.2l0,43.37,38.94-24.34-39-19m-.24-.39,39.7,19.4L1770.28,776Z" transform="translate(-1127.07 -362.37)"/></g><g id="Polygon_15-2" data-name="Polygon 15"><path class="cls-55" d="M1534.39,376.37l39.7,19.39-39.67,24.8Z" transform="translate(-1127.07 -362.37)"/><path class="cls-56" d="M1534.62,376.75l0,43.38,38.94-24.34-39-19m-.23-.38,39.7,19.39-39.67,24.8Z" transform="translate(-1127.07 -362.37)"/></g><g id="Polygon_16-2" data-name="Polygon 16"><path class="cls-57" d="M1525.24,376.78,1565,396.17,1525.28,421Z" transform="translate(-1127.07 -362.37)"/><path class="cls-58" d="M1525.48,377.16l0,43.37,38.94-24.34-39-19m-.24-.38L1565,396.17,1525.28,421Z" transform="translate(-1127.07 -362.37)"/></g><g id="Polygon_15-3" data-name="Polygon 15"><path class="cls-59" d="M1879.39,442.37l39.7,19.39-39.67,24.8Z" transform="translate(-1127.07 -362.37)"/><path class="cls-60" d="M1879.62,442.75l0,43.38,38.94-24.34-39-19m-.23-.38,39.7,19.39-39.67,24.8Z" transform="translate(-1127.07 -362.37)"/></g><g id="Polygon_16-3" data-name="Polygon 16"><path class="cls-61" d="M1870.24,442.78,1910,462.17,1870.28,487Z" transform="translate(-1127.07 -362.37)"/><path class="cls-62" d="M1870.48,443.16l0,43.37,38.94-24.34-39-19m-.24-.38L1910,462.17,1870.28,487Z" transform="translate(-1127.07 -362.37)"/></g><polygon class="cls-63" points="179.58 175.45 179.58 261.65 179.68 261.65 179.68 261.75 265.88 261.75 265.88 235.61 205.72 235.61 205.72 175.45 179.58 175.45"/><polygon class="cls-64" points="192.79 162.63 192.79 248.83 192.89 248.83 192.89 248.93 279.1 248.93 279.1 222.79 218.93 222.79 218.93 162.63 192.79 162.63"/><path class="cls-65" d="M-.5,839.5" transform="translate(-1127.07 -362.37)"/></svg>